# Blender v2.78 (sub 0) OBJ File: 'bullet.blend'
# www.blender.org
o Cone
v -0.712928 0.500719 0.334994
v -0.712928 0.333221 0.290114
v -0.712928 0.210605 0.167497
v -0.712928 0.165724 -0.000000
v -0.712928 0.210605 -0.167498
v -0.712928 0.333221 -0.290114
v -0.712928 0.500719 -0.334995
v -3.130397 0.500719 0.000000
v -0.712928 0.668216 -0.290114
v -0.712928 0.790833 -0.167498
v -0.712928 0.835713 -0.000000
v -0.712928 0.790833 0.167497
v -0.712928 0.668216 0.290114
v -0.581995 0.500719 0.390533
v -0.581995 0.305452 0.338212
v -0.581995 0.162507 0.195267
v -0.581995 0.110185 -0.000000
v -0.581995 0.162507 -0.195267
v -0.581995 0.305452 -0.338212
v -0.581995 0.500719 -0.390534
v -0.581995 0.695985 -0.338212
v -0.581995 0.838931 -0.195267
v -0.581995 0.891252 -0.000000
v -0.581995 0.838931 0.195266
v -0.581995 0.695986 0.338212
v 2.677770 0.500719 0.423652
v 2.677770 0.288893 0.366893
v 2.677770 0.133826 0.211826
v 2.677770 0.077068 -0.000000
v 2.677770 0.133826 -0.211826
v 2.677770 0.288893 -0.366893
v 2.677770 0.500719 -0.423652
v 2.677770 0.712545 -0.366893
v 2.677770 0.867612 -0.211826
v 2.677770 0.924371 -0.000000
v 2.677770 0.867613 0.211826
v 2.677770 0.712546 0.366893
v 2.734647 0.500719 0.500001
v 2.734647 0.250719 0.433013
v 2.734647 0.067706 0.250000
v 2.734647 0.000718 -0.000000
v 2.734647 0.067706 -0.250001
v 2.734647 0.250719 -0.433014
v 2.734647 0.500719 -0.500001
v 2.734647 0.750720 -0.433014
v 2.734647 0.933733 -0.250001
v 2.734647 1.000721 -0.000000
v 2.734647 0.933733 0.250000
v 2.734647 0.750720 0.433013
v 3.015268 0.500719 0.500001
v 3.015268 0.250719 0.433013
v 3.015268 0.067706 0.250000
v 3.015268 0.000718 -0.000000
v 3.015268 0.067706 -0.250001
v 3.015268 0.250719 -0.433014
v 3.015268 0.500719 -0.500001
v 3.015268 0.750720 -0.433014
v 3.015268 0.933733 -0.250001
v 3.015268 1.000721 -0.000000
v 3.015268 0.933733 0.250000
v 3.015268 0.750720 0.433013
v 3.100919 0.500719 0.443939
v 3.100919 0.278750 0.384463
v 3.100919 0.116256 0.221970
v 3.100919 0.056780 -0.000000
v 3.100919 0.116257 -0.221970
v 3.100919 0.278750 -0.384463
v 3.100919 0.500719 -0.443940
v 3.100919 0.722689 -0.384463
v 3.100919 0.885182 -0.221970
v 3.100919 0.944659 -0.000000
v 3.100919 0.885183 0.221969
v 3.100919 0.722690 0.384463
vt 0.8311 0.0001
vt 0.7693 0.2307
vt 0.7075 0.0001
vt 0.6005 0.0619
vt 0.5387 0.1689
vt 0.5387 0.2925
vt 0.6005 0.3995
vt 0.7075 0.4613
vt 0.8311 0.4613
vt 0.9381 0.3995
vt 0.9999 0.2925
vt 0.9999 0.1689
vt 0.9381 0.0619
vt 0.3515 0.2244
vt 0.4117 0.2674
vt 0.3654 0.2708
vt 0.3439 0.3908
vt 0.1973 0.0003
vt 0.2736 0.4110
vt 0.2676 0.1782
vt 0.1945 0.1515
vt 0.2649 0.1312
vt 0.3361 0.1482
vt 0.3155 0.1907
vt 0.1855 0.2252
vt 0.1268 0.2753
vt 0.1438 0.2042
vt 0.2228 0.3515
vt 0.1484 0.3451
vt 0.1867 0.3185
vt 0.3532 0.3174
vt 0.3947 0.3384
vt 0.3899 0.1977
vt 0.2201 0.1908
vt 0.2708 0.3640
vt 0.2024 0.3942
vt 0.1732 0.2720
vt 0.3185 0.3514
vt 0.5387 0.6096
vt 0.6331 0.5422
vt 0.5833 0.6224
vt 0.4664 0.4696
vt 0.0716 0.4696
vt 0.3419 0.0001
vt 0.0724 0.0733
vt 0.5059 0.3437
vt 0.1964 0.5427
vt 0.0004 0.1990
vt 0.4666 0.0732
vt 0.5059 0.1988
vt 0.3413 0.5426
vt 0.0001 0.3438
vt 0.9140 0.6315
vt 0.8414 0.6995
vt 0.8434 0.6520
vt 0.7111 0.4864
vt 0.8027 0.5128
vt 0.7175 0.5046
vt 0.5979 0.8217
vt 0.7056 0.8349
vt 0.6942 0.8762
vt 0.8990 0.8222
vt 0.9135 0.7172
vt 0.9537 0.7286
vt 0.5986 0.5027
vt 0.8257 0.4958
vt 0.8725 0.5578
vt 0.5404 0.7251
vt 0.6286 0.7911
vt 0.8040 0.8762
vt 0.8697 0.7919
vt 0.9015 0.5305
vt 0.5833 0.7138
vt 0.7936 0.8350
vt 0.9539 0.6215
vt 0.8254 0.6564
vt 0.6609 0.6420
vt 0.7337 0.5795
vt 0.7230 0.7602
vt 0.6887 0.6006
vt 0.7819 0.5834
vt 0.6813 0.7347
vt 0.8154 0.7398
vt 0.8216 0.6097
vt 0.6584 0.6914
vt 0.7720 0.7617
vt 0.6771 0.6868
vt 0.7018 0.6151
vt 0.6795 0.6477
vt 0.7763 0.6014
vt 0.7376 0.5983
vt 0.7280 0.7416
vt 0.8025 0.7261
vt 0.8234 0.6943
vt 0.8081 0.6226
vt 0.6949 0.7212
vt 0.7674 0.7430
vn -0.1327 -0.2565 0.9574
vn -0.1327 -0.7009 0.7009
vn -0.1327 -0.9574 0.2565
vn -0.1327 -0.9574 -0.2565
vn -0.1327 -0.7009 -0.7009
vn -0.1327 -0.2565 -0.9574
vn -0.1327 0.2565 -0.9574
vn -0.1327 0.7009 -0.7009
vn -0.1327 0.9574 -0.2565
vn -0.1327 0.9574 0.2565
vn -0.1327 0.7009 0.7009
vn -0.1327 0.2565 0.9574
vn -0.3791 -0.8938 -0.2395
vn -0.0098 -0.2588 0.9659
vn -0.3791 0.2395 -0.8938
vn -0.3791 -0.2395 -0.8938
vn -0.3791 0.8938 -0.2395
vn -0.3791 0.6543 0.6543
vn -0.3791 -0.8938 0.2395
vn -0.3791 -0.6543 -0.6543
vn -0.3791 0.6543 -0.6543
vn -0.3791 0.2395 0.8938
vn -0.3791 0.8938 0.2395
vn -0.3791 -0.6543 0.6543
vn -0.3791 -0.2395 0.8938
vn -0.7919 0.4318 0.4318
vn -0.0098 0.7071 -0.7071
vn -0.0098 -0.7071 -0.7071
vn -0.0098 0.2588 0.9659
vn -0.0098 -0.7071 0.7071
vn -0.0098 0.9659 -0.2588
vn -0.0098 -0.2588 -0.9659
vn -0.0098 -0.9659 0.2588
vn -0.0098 0.9659 0.2588
vn -0.0098 0.2588 -0.9659
vn -0.0098 -0.9659 -0.2588
vn -0.0098 0.7071 0.7071
vn 0.0000 -0.9659 -0.2588
vn -0.7919 -0.1581 0.5899
vn -0.7919 0.4318 -0.4318
vn -0.7919 -0.4318 -0.4318
vn -0.7919 0.1581 0.5899
vn -0.7919 -0.4318 0.4318
vn -0.7919 0.5899 -0.1581
vn -0.7919 -0.1581 -0.5899
vn -0.7919 -0.5899 0.1581
vn -0.7919 0.5899 0.1581
vn -0.7919 0.1581 -0.5899
vn -0.7919 -0.5899 -0.1581
vn 0.5344 -0.8164 -0.2188
vn -0.0000 0.7071 0.7071
vn 0.0000 -0.2588 0.9659
vn 0.0000 0.7071 -0.7071
vn -0.0000 -0.7071 -0.7071
vn 0.0000 0.2588 0.9659
vn 0.0000 -0.7071 0.7071
vn 0.0000 0.9659 -0.2588
vn -0.0000 -0.2588 -0.9659
vn -0.0000 -0.9659 0.2588
vn 0.0000 0.9659 0.2588
vn 0.0000 0.2588 -0.9659
vn 1.0000 0.0000 0.0000
vn 0.5344 0.5977 0.5977
vn 0.5344 -0.2188 0.8164
vn 0.5344 0.5977 -0.5977
vn 0.5344 -0.5977 -0.5977
vn 0.5344 0.2188 0.8164
vn 0.5344 -0.5977 0.5977
vn 0.5344 0.8164 -0.2188
vn 0.5344 -0.2188 -0.8164
vn 0.5344 -0.8164 0.2188
vn 0.5344 0.8164 0.2188
vn 0.5344 0.2188 -0.8164
s off
f 1/1/1 8/2/1 2/3/1
f 2/3/2 8/2/2 3/4/2
f 3/4/3 8/2/3 4/5/3
f 4/5/4 8/2/4 5/6/4
f 5/6/5 8/2/5 6/7/5
f 6/7/6 8/2/6 7/8/6
f 7/8/7 8/2/7 9/9/7
f 9/9/8 8/2/8 10/10/8
f 10/10/9 8/2/9 11/11/9
f 11/11/10 8/2/10 12/12/10
f 12/12/11 8/2/11 13/13/11
f 13/13/12 8/2/12 1/1/12
f 5/14/13 17/15/13 4/16/13
f 15/17/14 26/18/14 14/19/14
f 7/20/15 21/21/15 20/22/15
f 7/20/16 19/23/16 6/24/16
f 10/25/17 23/26/17 22/27/17
f 13/28/18 24/29/18 12/30/18
f 3/31/19 17/15/19 16/32/19
f 6/24/20 18/33/20 5/14/20
f 9/34/21 22/27/21 21/21/21
f 1/35/22 25/36/22 13/28/22
f 12/30/23 23/26/23 11/37/23
f 3/31/24 15/17/24 2/38/24
f 2/38/25 14/19/25 1/35/25
f 36/39/26 49/40/26 48/41/26
f 22/27/27 33/42/27 21/21/27
f 19/23/28 30/43/28 18/33/28
f 14/19/29 37/44/29 25/36/29
f 16/32/30 27/45/30 15/17/30
f 23/26/31 34/46/31 22/27/31
f 20/22/32 31/47/32 19/23/32
f 17/15/33 28/48/33 16/32/33
f 23/26/34 36/49/34 35/50/34
f 21/21/35 32/51/35 20/22/35
f 18/33/36 29/52/36 17/15/36
f 25/36/37 36/49/37 24/29/37
f 41/53/38 54/54/38 53/55/38
f 26/56/39 39/57/39 38/58/39
f 34/59/40 45/60/40 33/61/40
f 31/62/41 42/63/41 30/64/41
f 37/65/42 38/58/42 49/40/42
f 27/66/43 40/67/43 39/57/43
f 35/68/44 46/69/44 34/59/44
f 32/70/45 43/71/45 31/62/45
f 28/72/46 41/53/46 40/67/46
f 35/68/47 48/41/47 47/73/47
f 33/61/48 44/74/48 32/70/48
f 30/64/49 41/53/49 29/75/49
f 54/54/50 65/76/50 53/55/50
f 49/40/51 60/77/51 48/41/51
f 39/57/52 50/78/52 38/58/52
f 46/69/53 57/79/53 45/60/53
f 43/71/54 54/54/54 42/63/54
f 38/58/55 61/80/55 49/40/55
f 40/67/56 51/81/56 39/57/56
f 47/73/57 58/82/57 46/69/57
f 44/74/58 55/83/58 43/71/58
f 41/53/59 52/84/59 40/67/59
f 48/41/60 59/85/60 47/73/60
f 44/74/61 57/79/61 56/86/61
f 65/76/62 71/87/62 73/88/62
f 61/80/63 72/89/63 60/77/63
f 50/78/64 63/90/64 62/91/64
f 58/82/65 69/92/65 57/79/65
f 54/54/66 67/93/66 66/94/66
f 50/78/67 73/88/67 61/80/67
f 51/81/68 64/95/68 63/90/68
f 59/85/69 70/96/69 58/82/69
f 56/86/70 67/93/70 55/83/70
f 52/84/71 65/76/71 64/95/71
f 59/85/72 72/89/72 71/87/72
f 56/86/73 69/92/73 68/97/73
f 5/14/13 18/33/13 17/15/13
f 15/17/14 27/45/14 26/18/14
f 7/20/15 9/34/15 21/21/15
f 7/20/16 20/22/16 19/23/16
f 10/25/17 11/37/17 23/26/17
f 13/28/18 25/36/18 24/29/18
f 3/31/19 4/16/19 17/15/19
f 6/24/20 19/23/20 18/33/20
f 9/34/21 10/25/21 22/27/21
f 1/35/22 14/19/22 25/36/22
f 12/30/23 24/29/23 23/26/23
f 3/31/24 16/32/24 15/17/24
f 2/38/25 15/17/25 14/19/25
f 36/39/26 37/65/26 49/40/26
f 22/27/27 34/46/27 33/42/27
f 19/23/28 31/47/28 30/43/28
f 14/19/29 26/18/29 37/44/29
f 16/32/30 28/48/30 27/45/30
f 23/26/31 35/50/31 34/46/31
f 20/22/32 32/51/32 31/47/32
f 17/15/33 29/52/33 28/48/33
f 23/26/34 24/29/34 36/49/34
f 21/21/35 33/42/35 32/51/35
f 18/33/36 30/43/36 29/52/36
f 25/36/37 37/44/37 36/49/37
f 41/53/38 42/63/38 54/54/38
f 26/56/39 27/66/39 39/57/39
f 34/59/40 46/69/40 45/60/40
f 31/62/41 43/71/41 42/63/41
f 37/65/42 26/56/42 38/58/42
f 27/66/43 28/72/43 40/67/43
f 35/68/44 47/73/44 46/69/44
f 32/70/45 44/74/45 43/71/45
f 28/72/46 29/75/46 41/53/46
f 35/68/47 36/39/47 48/41/47
f 33/61/48 45/60/48 44/74/48
f 30/64/49 42/63/49 41/53/49
f 54/54/50 66/94/50 65/76/50
f 49/40/51 61/80/51 60/77/51
f 39/57/52 51/81/52 50/78/52
f 46/69/53 58/82/53 57/79/53
f 43/71/54 55/83/54 54/54/54
f 38/58/55 50/78/55 61/80/55
f 40/67/56 52/84/56 51/81/56
f 47/73/57 59/85/57 58/82/57
f 44/74/58 56/86/58 55/83/58
f 41/53/59 53/55/59 52/84/59
f 48/41/60 60/77/60 59/85/60
f 44/74/61 45/60/61 57/79/61
f 73/88/62 62/91/62 63/90/62
f 63/90/62 64/95/62 65/76/62
f 65/76/62 66/94/62 67/93/62
f 67/93/62 68/97/62 69/92/62
f 69/92/62 70/96/62 71/87/62
f 71/87/62 72/89/62 73/88/62
f 73/88/62 63/90/62 65/76/62
f 65/76/62 67/93/62 69/92/62
f 69/92/62 71/87/62 65/76/62
f 61/80/63 73/88/63 72/89/63
f 50/78/64 51/81/64 63/90/64
f 58/82/65 70/96/65 69/92/65
f 54/54/66 55/83/66 67/93/66
f 50/78/67 62/91/67 73/88/67
f 51/81/68 52/84/68 64/95/68
f 59/85/69 71/87/69 70/96/69
f 56/86/70 68/97/70 67/93/70
f 52/84/71 53/55/71 65/76/71
f 59/85/72 60/77/72 72/89/72
f 56/86/73 57/79/73 69/92/73
