# Blender v2.78 (sub 0) OBJ File: 'turret.blend'
# www.blender.org
o Barrel_Circle.001
v 0.001885 0.359663 0.203800
v 0.103907 0.359663 0.176463
v 0.178593 0.359663 0.101778
v 0.205929 0.359663 -0.000244
v 0.178593 0.359663 -0.102266
v 0.103907 0.359663 -0.176951
v 0.001885 0.359663 -0.204288
v -0.100137 0.359663 -0.176951
v -0.174822 0.359663 -0.102266
v -0.202159 0.359663 -0.000244
v -0.174822 0.359663 0.101778
v -0.100137 0.359663 0.176463
v 0.103907 0.308976 0.176463
v 0.001885 0.308976 0.203800
v 0.178593 0.308976 0.101778
v 0.205929 0.308976 -0.000244
v 0.178593 0.308976 -0.102266
v 0.103907 0.308976 -0.176951
v 0.001885 0.308976 -0.204288
v -0.100137 0.308976 -0.176951
v -0.174822 0.308976 -0.102266
v -0.202159 0.308976 -0.000244
v -0.174822 0.308976 0.101778
v -0.100137 0.308976 0.176463
v 0.185456 0.295730 0.317710
v 0.001885 0.295730 0.366898
v 0.319839 0.295730 0.183327
v 0.369027 0.295730 -0.000244
v 0.319839 0.295730 -0.183815
v 0.185456 0.295730 -0.318198
v 0.001885 0.295730 -0.367386
v -0.181685 0.295730 -0.318198
v -0.316069 0.295730 -0.183815
v -0.365256 0.295730 -0.000244
v -0.316069 0.295730 0.183327
v -0.181686 0.295730 0.317710
v 0.185456 0.228878 0.317710
v 0.001885 0.228878 0.366898
v 0.319839 0.228878 0.183327
v 0.369027 0.228878 -0.000244
v 0.319839 0.228878 -0.183815
v 0.185456 0.228878 -0.318198
v 0.001885 0.228878 -0.367386
v -0.181685 0.228878 -0.318198
v -0.316069 0.228878 -0.183815
v -0.365256 0.228878 -0.000244
v -0.316069 0.228878 0.183327
v -0.181686 0.228878 0.317710
v 0.247757 0.000004 0.425619
v 0.001885 0.000004 0.491500
v 0.427748 0.000004 0.245628
v 0.493630 0.000004 -0.000244
v 0.427748 0.000004 -0.246116
v 0.247757 0.000004 -0.426107
v 0.001885 0.000004 -0.491988
v -0.243987 0.000004 -0.426107
v -0.423978 0.000004 -0.246116
v -0.489859 0.000004 -0.000244
v -0.423978 0.000004 0.245628
v -0.243987 0.000004 0.425619
v 0.045203 0.511134 -0.141840
v 0.045203 0.601044 -0.068284
v 0.045203 0.511134 -0.051037
v 0.045203 0.601044 0.022519
v -0.045600 0.511134 -0.141840
v -0.045600 0.601044 -0.068284
v -0.045600 0.511134 -0.051037
v -0.045600 0.601044 0.022519
v 0.045203 0.358866 0.047139
v 0.045203 0.358866 -0.043664
v -0.045600 0.358866 0.047139
v -0.045600 0.358866 -0.043664
v -0.173595 0.585408 0.183796
v -0.173595 0.585408 -0.234917
v 0.173595 0.585408 0.183796
v 0.173595 0.585408 -0.234917
v -0.077925 1.000004 0.183796
v -0.212167 0.869894 0.183796
v -0.209356 1.000004 0.052364
v 0.209356 1.000004 0.052389
v 0.212166 0.869919 0.183796
v 0.077949 1.000004 0.183796
v 0.209356 1.000004 -0.108128
v 0.082568 1.000004 -0.234917
v 0.212067 0.874490 -0.234917
v -0.078993 1.000004 -0.234917
v -0.209356 1.000004 -0.104554
v -0.212144 0.870952 -0.234917
v 0.000000 0.903129 0.379300
v 0.055760 0.888335 0.379300
v 0.096579 0.847918 0.379300
v 0.111520 0.792706 0.379300
v 0.096579 0.737494 0.379300
v 0.055760 0.697076 0.379300
v 0.000000 0.682282 0.379300
v -0.055760 0.697076 0.379300
v -0.096579 0.737494 0.379300
v -0.111520 0.792706 0.379300
v -0.096579 0.847917 0.379300
v -0.055760 0.888335 0.379300
v 0.037777 0.857493 1.000885
v 0.000000 0.867516 1.000885
v 0.065431 0.830111 1.000885
v 0.075553 0.792706 1.000885
v 0.065431 0.755301 1.000885
v 0.037777 0.727918 1.000885
v 0.000000 0.717896 1.000885
v -0.037777 0.727918 1.000885
v -0.065431 0.755301 1.000885
v -0.075553 0.792706 1.000885
v -0.065431 0.830111 1.000885
v -0.037777 0.857493 1.000885
v 0.026981 0.838978 1.000885
v -0.000000 0.846137 1.000885
v 0.046732 0.819421 1.000885
v 0.053961 0.792706 1.000885
v 0.046732 0.765990 1.000885
v 0.026981 0.746433 1.000885
v 0.000000 0.739275 1.000885
v -0.026981 0.746433 1.000885
v -0.046732 0.765990 1.000885
v -0.053961 0.792706 1.000885
v -0.046732 0.819421 1.000885
v -0.026981 0.838978 1.000885
v 0.026981 0.838978 1.144816
v -0.000000 0.846137 1.144816
v 0.046732 0.819421 1.144816
v 0.053961 0.792706 1.144816
v 0.046732 0.765990 1.144816
v 0.026981 0.746433 1.144816
v 0.000000 0.739275 1.144816
v -0.026981 0.746433 1.144816
v -0.046732 0.765990 1.144816
v -0.053961 0.792706 1.144816
v -0.046732 0.819421 1.144816
v -0.026981 0.838978 1.144816
v 0.037777 0.857493 1.144816
v 0.000000 0.867516 1.144816
v 0.065431 0.830111 1.144816
v 0.075553 0.792706 1.144816
v 0.065431 0.755301 1.144816
v 0.037777 0.727918 1.144816
v 0.000000 0.717896 1.144816
v -0.037777 0.727918 1.144816
v -0.065431 0.755301 1.144816
v -0.075553 0.792706 1.144816
v -0.065431 0.830111 1.144816
v -0.037777 0.857493 1.144816
v 0.026981 0.838978 0.379300
v -0.000000 0.846137 0.379300
v 0.046732 0.819421 0.379300
v 0.053961 0.792706 0.379300
v 0.046732 0.765990 0.379300
v 0.026981 0.746433 0.379300
v 0.000000 0.739275 0.379300
v -0.026981 0.746433 0.379300
v -0.046732 0.765990 0.379300
v -0.053961 0.792706 0.379300
v -0.046732 0.819421 0.379300
v -0.026981 0.838978 0.379300
v 0.055760 0.888335 0.158692
v 0.000000 0.903129 0.158692
v 0.096579 0.847918 0.158692
v 0.111520 0.792706 0.158692
v 0.096579 0.737494 0.158692
v 0.055760 0.697076 0.158692
v 0.000000 0.682282 0.158692
v -0.055760 0.697076 0.158692
v -0.096579 0.737494 0.158692
v -0.111520 0.792706 0.158692
v -0.096579 0.847917 0.158692
v -0.055760 0.888335 0.158692
vn 0.0000 1.0000 -0.0000
vn 0.0809 0.9965 0.0217
vn -0.7071 0.0000 -0.7071
vn 0.7071 0.0000 -0.7071
vn -0.2588 0.0000 0.9659
vn 0.7071 0.0000 0.7071
vn -0.9659 0.0000 -0.2588
vn 0.2588 0.0000 -0.9659
vn 0.9659 0.0000 0.2588
vn -0.9659 0.0000 0.2588
vn -0.2588 0.0000 -0.9659
vn 0.9659 0.0000 -0.2588
vn -0.7071 0.0000 0.7071
vn 0.2588 0.0000 0.9659
vn -0.0809 0.9965 0.0217
vn -0.0217 0.9965 -0.0809
vn 0.0809 0.9965 -0.0217
vn -0.0592 0.9965 0.0592
vn 0.0217 0.9965 0.0809
vn -0.0592 0.9965 -0.0592
vn 0.0592 0.9965 -0.0592
vn -0.0217 0.9965 0.0809
vn 0.0592 0.9965 0.0592
vn -0.0809 0.9965 -0.0217
vn 0.0217 0.9965 -0.0809
vn 0.6258 0.4654 -0.6258
vn 0.0000 -1.0000 0.0000
vn -0.2291 0.4654 0.8549
vn 0.6258 0.4654 0.6258
vn -0.8549 0.4654 -0.2291
vn 0.2291 0.4654 -0.8549
vn 0.8549 0.4654 0.2291
vn -0.8549 0.4654 0.2291
vn -0.2291 0.4654 -0.8549
vn 0.8549 0.4654 -0.2291
vn -0.6258 0.4654 0.6258
vn 0.2291 0.4654 0.8549
vn -0.6258 0.4654 -0.6258
vn 1.0000 0.0000 0.0000
vn 0.0000 -0.6332 0.7740
vn -1.0000 0.0000 0.0000
vn 0.0000 0.6332 -0.7740
vn 0.0000 0.5419 0.8405
vn 0.0000 -0.5419 -0.8405
vn 0.0000 -0.0000 1.0000
vn -0.5712 0.5894 0.5712
vn 0.5712 0.5894 0.5712
vn -0.9910 -0.1338 -0.0004
vn 0.5712 0.5894 -0.5712
vn 0.9913 -0.1319 -0.0017
vn -0.5712 0.5894 -0.5712
vn 0.0000 0.0000 -1.0000
vn -0.7036 -0.7106 0.0000
vn 0.7036 -0.7106 0.0000
vn -0.2564 0.9666 0.0000
vn 0.7036 0.7106 0.0000
vn -0.9653 -0.2612 0.0000
vn 0.2564 -0.9666 0.0000
vn 0.9653 0.2612 0.0000
vn 0.9653 -0.2612 0.0000
vn -0.2564 -0.9666 0.0000
vn -0.7036 0.7106 -0.0000
vn 0.2564 0.9666 0.0000
vn -0.9653 0.2612 0.0000
vn -0.9998 0.0216 0.0000
vn -0.9909 -0.1344 0.0000
vn 0.9998 0.0216 0.0000
vn 0.9909 -0.1343 0.0000
s off
f 5//1 9//1 1//1
f 15//2 28//2 16//2
f 8//3 21//3 9//3
f 17//4 6//4 5//4
f 24//5 1//5 12//5
f 13//6 3//6 2//6
f 21//7 10//7 9//7
f 18//8 7//8 6//8
f 15//9 4//9 3//9
f 10//10 23//10 11//10
f 19//11 8//11 7//11
f 16//12 5//12 4//12
f 23//13 12//13 11//13
f 14//14 2//14 1//14
f 42//8 31//8 30//8
f 34//15 23//15 22//15
f 19//16 32//16 20//16
f 16//17 29//17 17//17
f 23//18 36//18 24//18
f 26//19 13//19 14//19
f 32//20 21//20 20//20
f 29//21 18//21 17//21
f 36//22 14//22 24//22
f 25//23 15//23 13//23
f 33//24 22//24 21//24
f 30//25 19//25 18//25
f 42//26 53//26 54//26
f 39//9 28//9 27//9
f 34//10 47//10 35//10
f 43//11 32//11 31//11
f 40//12 29//12 28//12
f 47//13 36//13 35//13
f 38//14 25//14 26//14
f 32//3 45//3 33//3
f 41//4 30//4 29//4
f 48//5 26//5 36//5
f 37//6 27//6 25//6
f 45//7 34//7 33//7
f 59//27 53//27 51//27
f 48//28 50//28 38//28
f 37//29 51//29 39//29
f 46//30 57//30 58//30
f 42//31 55//31 43//31
f 39//32 52//32 40//32
f 46//33 59//33 47//33
f 43//34 56//34 44//34
f 40//35 53//35 41//35
f 47//36 60//36 48//36
f 37//37 50//37 49//37
f 45//38 56//38 57//38
f 62//39 63//39 61//39
f 64//40 67//40 63//40
f 67//41 66//41 65//41
f 66//42 61//42 65//42
f 67//43 69//43 63//43
f 64//1 66//1 68//1
f 71//27 70//27 69//27
f 63//39 70//39 61//39
f 67//41 72//41 71//41
f 61//44 72//44 65//44
f 78//45 75//45 81//45
f 80//1 84//1 86//1
f 75//27 74//27 76//27
f 77//46 79//46 78//46
f 80//47 82//47 81//47
f 88//48 74//48 78//48
f 83//49 85//49 84//49
f 81//50 76//50 85//50
f 86//51 88//51 87//51
f 85//52 76//52 88//52
f 138//45 125//45 137//45
f 120//53 157//53 156//53
f 117//54 154//54 153//54
f 124//55 150//55 160//55
f 113//56 151//56 149//56
f 121//57 158//57 157//57
f 118//58 155//58 154//58
f 115//59 152//59 151//59
f 159//60 122//60 158//60
f 119//61 156//61 155//61
f 116//60 153//60 152//60
f 123//62 160//62 159//62
f 114//63 149//63 150//63
f 108//53 145//53 109//53
f 115//53 125//53 113//53
f 122//59 133//59 121//59
f 107//61 144//61 108//61
f 113//61 126//61 114//61
f 121//56 132//56 120//56
f 106//58 143//58 107//58
f 120//63 131//63 119//63
f 105//54 142//54 106//54
f 112//55 138//55 102//55
f 119//55 130//55 118//55
f 104//60 141//60 105//60
f 137//45 127//45 139//45
f 139//45 128//45 140//45
f 141//45 128//45 129//45
f 142//45 129//45 130//45
f 143//45 130//45 131//45
f 143//45 132//45 144//45
f 144//45 133//45 145//45
f 145//45 134//45 146//45
f 147//45 134//45 135//45
f 148//45 135//45 136//45
f 138//45 136//45 126//45
f 123//60 134//60 122//60
f 102//63 137//63 101//63
f 116//57 127//57 115//57
f 109//57 146//57 110//57
f 124//54 135//54 123//54
f 101//56 139//56 103//56
f 117//64 128//64 116//64
f 110//64 147//64 111//64
f 114//58 136//58 124//58
f 103//59 140//59 104//59
f 118//62 129//62 117//62
f 111//62 148//62 112//62
f 91//56 161//56 90//56
f 98//57 169//57 97//57
f 90//63 162//63 89//63
f 97//53 168//53 96//53
f 96//61 167//61 95//61
f 95//58 166//58 94//58
f 102//52 124//52 112//52
f 113//52 102//52 101//52
f 115//52 101//52 103//52
f 116//52 103//52 104//52
f 105//52 116//52 104//52
f 106//52 117//52 105//52
f 107//52 118//52 106//52
f 120//52 107//52 108//52
f 121//52 108//52 109//52
f 122//52 109//52 110//52
f 111//52 122//52 110//52
f 112//52 123//52 111//52
f 99//64 170//64 98//64
f 92//59 163//59 91//59
f 100//62 171//62 99//62
f 93//60 164//60 92//60
f 89//55 172//55 100//55
f 94//54 165//54 93//54
f 151//45 90//45 149//45
f 152//45 91//45 151//45
f 152//45 93//45 92//45
f 153//45 94//45 93//45
f 154//45 95//45 94//45
f 156//45 95//45 155//45
f 157//45 96//45 156//45
f 158//45 97//45 157//45
f 158//45 99//45 98//45
f 159//45 100//45 99//45
f 160//45 89//45 100//45
f 149//45 89//45 150//45
f 1//1 2//1 3//1
f 3//1 4//1 1//1
f 5//1 6//1 7//1
f 7//1 8//1 5//1
f 9//1 10//1 1//1
f 11//1 12//1 1//1
f 1//1 4//1 5//1
f 5//1 8//1 9//1
f 10//1 11//1 1//1
f 15//2 27//2 28//2
f 8//3 20//3 21//3
f 17//4 18//4 6//4
f 24//5 14//5 1//5
f 13//6 15//6 3//6
f 21//7 22//7 10//7
f 18//8 19//8 7//8
f 15//9 16//9 4//9
f 10//10 22//10 23//10
f 19//11 20//11 8//11
f 16//12 17//12 5//12
f 23//13 24//13 12//13
f 14//14 13//14 2//14
f 42//8 43//8 31//8
f 34//15 35//15 23//15
f 19//16 31//16 32//16
f 16//17 28//17 29//17
f 23//18 35//18 36//18
f 26//19 25//19 13//19
f 32//20 33//20 21//20
f 29//21 30//21 18//21
f 36//22 26//22 14//22
f 25//23 27//23 15//23
f 33//24 34//24 22//24
f 30//25 31//25 19//25
f 42//26 41//26 53//26
f 39//9 40//9 28//9
f 34//10 46//10 47//10
f 43//11 44//11 32//11
f 40//12 41//12 29//12
f 47//13 48//13 36//13
f 38//14 37//14 25//14
f 32//3 44//3 45//3
f 41//4 42//4 30//4
f 48//5 38//5 26//5
f 37//6 39//6 27//6
f 45//7 46//7 34//7
f 51//27 49//27 50//27
f 50//27 60//27 59//27
f 59//27 58//27 57//27
f 57//27 56//27 59//27
f 55//27 54//27 53//27
f 53//27 52//27 51//27
f 51//27 50//27 59//27
f 59//27 56//27 55//27
f 55//27 53//27 59//27
f 48//28 60//28 50//28
f 37//29 49//29 51//29
f 46//30 45//30 57//30
f 42//31 54//31 55//31
f 39//32 51//32 52//32
f 46//33 58//33 59//33
f 43//34 55//34 56//34
f 40//35 52//35 53//35
f 47//36 59//36 60//36
f 37//37 38//37 50//37
f 45//38 44//38 56//38
f 62//39 64//39 63//39
f 64//40 68//40 67//40
f 67//41 68//41 66//41
f 66//42 62//42 61//42
f 67//43 71//43 69//43
f 64//1 62//1 66//1
f 71//27 72//27 70//27
f 63//39 69//39 70//39
f 67//41 65//41 72//41
f 61//44 70//44 72//44
f 81//45 82//45 77//45
f 77//45 78//45 81//45
f 73//45 75//45 78//45
f 86//1 87//1 79//1
f 79//1 77//1 80//1
f 82//1 80//1 77//1
f 83//1 84//1 80//1
f 86//1 79//1 80//1
f 75//27 73//27 74//27
f 78//65 79//65 88//65
f 87//65 88//65 79//65
f 74//66 73//66 78//66
f 85//67 83//67 80//67
f 80//67 81//67 85//67
f 75//68 76//68 81//68
f 88//52 86//52 85//52
f 84//52 85//52 86//52
f 76//52 74//52 88//52
f 138//45 126//45 125//45
f 120//53 121//53 157//53
f 117//54 118//54 154//54
f 124//55 114//55 150//55
f 113//56 115//56 151//56
f 121//57 122//57 158//57
f 118//58 119//58 155//58
f 115//59 116//59 152//59
f 159//60 123//60 122//60
f 119//61 120//61 156//61
f 116//60 117//60 153//60
f 123//62 124//62 160//62
f 114//63 113//63 149//63
f 108//53 144//53 145//53
f 115//53 127//53 125//53
f 122//59 134//59 133//59
f 107//61 143//61 144//61
f 113//61 125//61 126//61
f 121//56 133//56 132//56
f 106//58 142//58 143//58
f 120//63 132//63 131//63
f 105//54 141//54 142//54
f 112//55 148//55 138//55
f 119//55 131//55 130//55
f 104//60 140//60 141//60
f 137//45 125//45 127//45
f 139//45 127//45 128//45
f 141//45 140//45 128//45
f 142//45 141//45 129//45
f 143//45 142//45 130//45
f 143//45 131//45 132//45
f 144//45 132//45 133//45
f 145//45 133//45 134//45
f 147//45 146//45 134//45
f 148//45 147//45 135//45
f 138//45 148//45 136//45
f 123//60 135//60 134//60
f 102//63 138//63 137//63
f 116//57 128//57 127//57
f 109//57 145//57 146//57
f 124//54 136//54 135//54
f 101//56 137//56 139//56
f 117//64 129//64 128//64
f 110//64 146//64 147//64
f 114//58 126//58 136//58
f 103//59 139//59 140//59
f 118//62 130//62 129//62
f 111//62 147//62 148//62
f 91//56 163//56 161//56
f 98//57 170//57 169//57
f 90//63 161//63 162//63
f 97//53 169//53 168//53
f 96//61 168//61 167//61
f 95//58 167//58 166//58
f 102//52 114//52 124//52
f 113//52 114//52 102//52
f 115//52 113//52 101//52
f 116//52 115//52 103//52
f 105//52 117//52 116//52
f 106//52 118//52 117//52
f 107//52 119//52 118//52
f 120//52 119//52 107//52
f 121//52 120//52 108//52
f 122//52 121//52 109//52
f 111//52 123//52 122//52
f 112//52 124//52 123//52
f 99//64 171//64 170//64
f 92//59 164//59 163//59
f 100//62 172//62 171//62
f 93//60 165//60 164//60
f 89//55 162//55 172//55
f 94//54 166//54 165//54
f 151//45 91//45 90//45
f 152//45 92//45 91//45
f 152//45 153//45 93//45
f 153//45 154//45 94//45
f 154//45 155//45 95//45
f 156//45 96//45 95//45
f 157//45 97//45 96//45
f 158//45 98//45 97//45
f 158//45 159//45 99//45
f 159//45 160//45 100//45
f 160//45 150//45 89//45
f 149//45 90//45 89//45
